# xmcd
#
# Track frame offsets: 
#        150
#        14041
#        31572
#        60120
#        78792
#        92136
#        105926
#        127330
#
# Disc length: 2178 seconds
#
# Revision: 0
# Processed by: cddbd v1.5.2PL0 Copyright (c) Steve Scherf et al.
# Submitted via: ExactAudioCopyFreeDBPlugin 1.0
#
DISCID=53088008
DTITLE=Janis Joplin - In Concert CD1
DYEAR=2008
DGENRE=Blues
TTITLE0=Down On Me
TTITLE1=Bye, Bye Baby
TTITLE2=All Is Loneliness
TTITLE3=Piece Of My Heart
TTITLE4=Road Block
TTITLE5=Flower In The Sun
TTITLE6=Summertime
TTITLE7=Ego Rock
EXTD=
EXTT0=
EXTT1=
EXTT2=
EXTT3=
EXTT4=
EXTT5=
EXTT6=
EXTT7=
PLAYORDER=
